<svg id="Layer_1" data-name="Layer 1" xmlns="http://www.w3.org/2000/svg" viewBox="0 0 24 24"><defs><style>.cls-1{fill:none;}.cls-2{fill:#222;fill-rule:evenodd;}</style></defs><path class="cls-1" d="M0,0H24V24H0Z" transform="translate(0 0)"/><path id="prefix_a" data-name="prefix  a" class="cls-2" d="M3,12a9,9,0,0,0,5.39,8.24,7.68,7.68,0,0,1,.15-2.06L9.7,13.27a3.4,3.4,0,0,1-.29-1.42c0-1.34.78-2.33,1.74-2.33a1.2,1.2,0,0,1,1.21,1.35,19.34,19.34,0,0,1-.79,3.19A1.39,1.39,0,0,0,13,15.8c1.7,0,2.85-2.19,2.85-4.79,0-2-1.33-3.45-3.74-3.45a4.26,4.26,0,0,0-4.43,4.31,2.61,2.61,0,0,0,.59,1.77.43.43,0,0,1,.13.5l-.18.72a.31.31,0,0,1-.45.23,3.47,3.47,0,0,1-1.85-3.44C5.91,9.09,8.07,6,12.35,6A5.37,5.37,0,0,1,18,11.18c0,3.53-2,6.17-4.85,6.17A2.57,2.57,0,0,1,11,16.23s-.52,2.07-.63,2.47a7.48,7.48,0,0,1-.91,1.93A9,9,0,1,0,3.37,9.45,8.84,8.84,0,0,0,3,12Z" transform="translate(0 0)"/></svg>